<svg xmlns="http://www.w3.org/2000/svg" viewBox="0 0 844.09 131.89" height="100px"><defs><style>@font-face{font-family:&quot;Virgil&quot;;src:url(&quot;https://excalidraw.com/Virgil.woff2&quot;)}@font-face{font-family:&quot;Cascadia&quot;;src:url(&quot;https://excalidraw.com/Cascadia.woff2&quot;)}</style></defs><path fill="#fff" d="M0 0h844.09v131.89H0z"/><path d="M38.15 8.3l774.79 2.25 11.15 2.72 4.48 3.04 3.82 8.63.1 14.18-.18 62.96.03 2.6-5.73 8.84-7.42 7.3-14.08-.2-772.6 2.14-12.47-6.05-7.5-7.33-1.3-3.31-.43-13.75.6-54.56 1.1-11.98 4.2-8.43 10.2-7.1 10-.3" stroke-width="0" fill="#e3f2fd"/><path d="M38.09 9.299999999999999c276.12 3.54 552.74 3.16 768.78-.06m-769.29.64c250.48-.69 500.66-.19 768.22-.05m.32.17c17.31.89 28.2 10.3 28.21 29.63m-29.85-27.8c21.03-2.16 30.33 8.24 27.37 24.24m1.4 3.53c.05 10.28 2.56 21 2.6 53.04m-2.62-55.5c-.27 17.77 1.46 34.26 1.24 57.74m-.38-.96c1.31 20.5-8.88 29.34-26.35 27.77m26.35-25.86c-1.64 15.82-9.25 25.71-30.2 26.72m2.78-1.24c-247.2 2.93-493.34 2.92-769.1.74m768.56.24c-265.98-.96-532.28-1.07-768.4-.2m.24-.2c-20.4.86-26.38-8.26-27.43-28.65m25.58 28.81c-18.1-.9-28.24-8.28-28.35-29.95m1.2 2.22c2.4-14.63-.2-26.93-.38-57.92m1.12 56.7c1.63-12.1 1.42-24.66-.51-54.35m.8-.78c0-18.15 10.85-27.64 26.18-28.85M9.96 38.5c1.52-17.45 11.64-28.84 28.6-26.76" stroke="#1864ab" fill="none"/><text y="36" font-family="Virgil, Segoe UI Emoji" font-size="36" style="white-space:pre" transform="translate(34.63 41.23)">💡</text><g><text y="26" font-family="Helvetica, Segoe UI Emoji" font-size="28" style="white-space:pre" transform="translate(92.9 49.73)">Command Line Tool for Local SSL Certificate Generator</text></g></svg>
